<?xml version="1.0" encoding="UTF-8"?>
<svg id="Layer_1" data-name="Layer 1" xmlns="http://www.w3.org/2000/svg" viewBox="0 0 2816 1536">
  <defs>
    <style>
      .cls-1 {
        fill: #5c6f68;
      }

      .cls-2 {
        fill: #04471c;
      }
    </style>
  </defs>
  <g>
    <polyline class="cls-2" points="1056.37 791.82 1056.37 791.82 1058.14 615.92 1129.57 616.03 1129.57 919.46 1069.36 919.51 917.2 739 915.56 919.46 844.43 919.46 844.43 616.16 907.94 616.03"/>
    <path class="cls-1" d="M2387.16,919.46h-79.45l-59.08-85.23-64.36-.38-.65,85.62h-72.5s-.18-303.13-.18-303.13l148.14.12c27.48.02,53.41,8.28,76.36,21.29,30.14,20.22,44.96,52.7,44.46,89.02-.57,41.04-21.31,76.78-60.63,93.9l67.9,98.8ZM2291.7,688.89c-9.72-8.56-26.49-14.4-38.5-14.42l-69.2-.12-.08,101.32,74.37-.9c20.32-.25,38.59-15.65,43.88-30.12,7.13-19.49,5.94-41.32-10.46-55.76Z"/>
    <polygon class="cls-1" points="2046.21 792.59 1901.96 793.03 1901.71 861.55 2072.43 861.6 2072.27 919.73 1828.62 919.55 1829.06 616.27 2065.3 616.29 2065.99 674.15 1901.89 674.23 1901.81 736.15 2045.86 736.57 2046.21 792.59"/>
    <path class="cls-2" d="M623.84,616.13l72.02.14-.63,182.61c-.19,41.88-24.11,81.5-59.32,101.51-35.92,20.41-76.55,22.12-116.62,15.51-59.51-9.83-104.18-58.94-104.35-120.46l-1.49-179.28,72.67-.03,2.82,180.62c.38,38.38,31.68,61.33,66.79,61.15,36.14-.19,66.71-23.48,66.98-62.13l1.11-179.62Z"/>
    <path class="cls-1" d="M1763.62,793.43c-41.69,49.05-108.8,39.37-169.68,40.4l-1.08,85.68-72.25-.02.08-303.54,146.8.24c33.93.06,64.78,11.29,90.55,32.83,37.21,39.35,41.29,102.39,5.59,144.4ZM1665.51,774.36c31.05-.34,49.91-23.12,49.64-49.47-.27-26.74-18.82-48.43-48.44-49.95-24.18-1.24-48.04-1.06-73.23-.93l.05,101.13,71.98-.79Z"/>
    <polygon class="cls-2" points="280.54 919.46 207.36 919.54 207.07 674.87 109.91 674.52 110.14 616.2 378.79 616.13 378.98 674.56 280.6 674.74 280.54 919.46"/>
    <rect class="cls-2" x="734.86" y="616.44" width="72.09" height="302.91"/>
  </g>
  <polyline class="cls-1" points="2407.48 616.41 2676.13 616.35 2676.32 674.78 2577.94 674.96 2577.94 919.46 2504.8 919.5 2504.41 675.09 2407.24 674.74"/>
  <g>
    <path class="cls-2" d="M1392.48,816.36l-32.95-32.88,15.26-16.22,46.21,47.79c27.9,28.86,48.89,63.61,56.81,103.82-39.77,1.74-82.35-.72-111.37-31.02-8.62-8.65-15.7-17.92-22.67-27.99l-23.07-33.34c-12.63,26.02-24.36,55.5-48.81,70.59-30.03,18.89-65.3,23.87-100.78,22.05,3.62-20.93,10.92-40.14,21.37-58.36,7.86-13.01,15.55-25.23,26.2-36.1l53.94-55.1c-40.84-13.64-68.33-34.35-86.06-72.63-11.57-25.5-16.97-52.5-16.53-80.42,35.57-.02,72.41,4.11,103.26,21.43,39.09,22.33,56.23,58.09,58.42,102.39l-19.78,20.64-70.53,71.1c-17.75,17.89-32.9,36.59-41,61.98,50.58,2.17,57.3-13.2,79.46-36.9l13.43-14.37c2.14-1.61,2.61-4.3,4.47-6.16l35.23-35.36,22.93,36.52c6.96,11.09,13.86,21.45,22.79,30.93,17.4,19.22,42.23,28.53,68.32,25.16-8.44-27.33-34.81-57.85-54.56-77.55ZM1227.53,671.94c20.22,5.78,37.51,16.97,51.12,32.44l31.15,35.43c-2.24-63.63-56.74-102.34-117.49-100.22,9.33,52.02,36.79,102.3,95.13,109.01-15.06-33.32-34.51-51.97-59.91-76.66Z"/>
    <path class="cls-1" d="M1393.36,736.5l23.82-55.59-53.13,24.87-15.49-14.65c-3.61-3.28-3.7-8.37-.16-11.93l56.61-55.65c23.95-4.79,47.87-7.27,72.93-7.27,1.15,26.09.98,51.08-2.68,76.88l-55.72,58.25c-4.11,4.31-10.26,4.01-13.97-.38l-12.22-14.51Z"/>
    <path class="cls-1" d="M1244.27,878.44c-4.98,5.1-12.89,2.25-16.36-1.92-4.04-4.86-4.44-12.37.37-17.24l37.5-38.01c2.84-2.88,6.31-3.76,9.54-7.11l88.32-91.55c3.45-3.11,4.59-6.74,4.15-11.79l38.63-18.5-17.93,41.39c-5.06.05-8.95,1.58-12.01,5.58l-90.31,91.7c-.77,4.04-2.19,6.76-4.89,9.53l-37.02,37.91Z"/>
  </g>
</svg>